<svg width="1512" height="982" viewBox="0 0 1512 982" fill="none" xmlns="http://www.w3.org/2000/svg">
<g clip-path="url(#clip0_1_2)">
<rect width="1512" height="982" fill="white"/>
<rect width="710" height="982" fill="#0D1B3C"/>
<g clip-path="url(#clip1_1_2)">
<path d="M1512 0H531V982H1512V0Z" fill="white"/>
<path d="M794.235 0L797.839 13.6389C801.599 27.2778 808.807 54.5556 810.374 81.8333C811.941 109.111 807.867 136.389 813.351 163.667C818.835 190.944 833.877 218.222 838.107 245.5C842.338 272.778 835.444 300.056 832.623 327.333C829.803 354.611 830.743 381.889 829.176 409.167C827.609 436.444 823.536 463.722 814.134 491C804.733 518.278 790.004 545.556 796.115 572.833C802.069 600.111 828.706 627.389 844.845 654.667C861.141 681.944 866.781 709.222 868.348 736.5C869.915 763.778 867.408 791.056 859.73 818.333C852.209 845.611 839.674 872.889 837.794 900.167C836.071 927.444 844.845 954.722 849.389 968.361L853.776 982H531V968.361C531 954.722 531 927.444 531 900.167C531 872.889 531 845.611 531 818.333C531 791.056 531 763.778 531 736.5C531 709.222 531 681.944 531 654.667C531 627.389 531 600.111 531 572.833C531 545.556 531 518.278 531 491C531 463.722 531 436.444 531 409.167C531 381.889 531 354.611 531 327.333C531 300.056 531 272.778 531 245.5C531 218.222 531 190.944 531 163.667C531 136.389 531 109.111 531 81.8333C531 54.5556 531 27.2778 531 13.6389V0H794.235Z" fill="white"/>
<path d="M776.999 0L786.401 13.6389C795.802 27.2778 814.604 54.5556 818.522 81.8333C822.439 109.111 811.471 136.389 806.3 163.667C800.973 190.944 801.599 218.222 792.198 245.5C782.797 272.778 763.368 300.056 759.294 327.333C755.063 354.611 766.031 381.889 780.447 409.167C794.705 436.444 812.567 463.722 816.641 491C820.872 518.278 811.471 545.556 802.853 572.833C794.235 600.111 786.401 627.389 785.617 654.667C784.834 681.944 791.101 709.222 788.438 736.5C785.931 763.778 774.336 791.056 767.285 818.333C760.234 845.611 757.727 872.889 763.994 900.167C770.262 927.444 785.304 954.722 792.982 968.361L800.503 982H531V968.361C531 954.722 531 927.444 531 900.167C531 872.889 531 845.611 531 818.333C531 791.056 531 763.778 531 736.5C531 709.222 531 681.944 531 654.667C531 627.389 531 600.111 531 572.833C531 545.556 531 518.278 531 491C531 463.722 531 436.444 531 409.167C531 381.889 531 354.611 531 327.333C531 300.056 531 272.778 531 245.5C531 218.222 531 190.944 531 163.667C531 136.389 531 109.111 531 81.8333C531 54.5556 531 27.2778 531 13.6389V0H776.999Z" fill="#BEBFCA"/>
<path d="M758.197 0L750.833 13.6389C743.625 27.2778 728.896 54.5556 725.763 81.8333C722.629 109.111 731.09 136.389 734.38 163.667C737.828 190.944 736.261 218.222 735.947 245.5C735.791 272.778 736.731 300.056 735.947 327.333C735.164 354.611 732.657 381.889 732.657 409.167C732.657 436.444 735.164 463.722 735.007 491C734.694 518.278 731.56 545.556 729.68 572.833C727.956 600.111 727.329 627.389 729.68 654.667C732.03 681.944 737.357 709.222 740.961 736.5C744.565 763.778 746.759 791.056 739.081 818.333C731.56 845.611 714.324 872.889 717.928 900.167C721.689 927.444 746.132 954.722 758.51 968.361L770.732 982H531V968.361C531 954.722 531 927.444 531 900.167C531 872.889 531 845.611 531 818.333C531 791.056 531 763.778 531 736.5C531 709.222 531 681.944 531 654.667C531 627.389 531 600.111 531 572.833C531 545.556 531 518.278 531 491C531 463.722 531 436.444 531 409.167C531 381.889 531 354.611 531 327.333C531 300.056 531 272.778 531 245.5C531 218.222 531 190.944 531 163.667C531 136.389 531 109.111 531 81.8333C531 54.5556 531 27.2778 531 13.6389V0H758.197Z" fill="#818398"/>
<path d="M701.789 0L698.342 13.6389C695.052 27.2778 688.158 54.5556 683.457 81.8333C678.756 109.111 676.249 136.389 672.019 163.667C667.788 190.944 662.147 218.222 662.617 245.5C663.088 272.778 669.982 300.056 673.116 327.333C676.249 354.611 675.623 381.889 675.466 409.167C675.152 436.444 675.152 463.722 674.682 491C674.056 518.278 673.116 545.556 670.765 572.833C668.415 600.111 664.654 627.389 669.355 654.667C674.056 681.944 687.217 709.222 686.904 736.5C686.591 763.778 673.116 791.056 674.839 818.333C676.719 845.611 693.955 872.889 696.619 900.167C699.126 927.444 687.217 954.722 681.107 968.361L675.152 982H531V968.361C531 954.722 531 927.444 531 900.167C531 872.889 531 845.611 531 818.333C531 791.056 531 763.778 531 736.5C531 709.222 531 681.944 531 654.667C531 627.389 531 600.111 531 572.833C531 545.556 531 518.278 531 491C531 463.722 531 436.444 531 409.167C531 381.889 531 354.611 531 327.333C531 300.056 531 272.778 531 245.5C531 218.222 531 190.944 531 163.667C531 136.389 531 109.111 531 81.8333C531 54.5556 531 27.2778 531 13.6389V0H701.789Z" fill="#474C68"/>
<path d="M623.446 0L626.579 13.6389C629.713 27.2778 635.981 54.5556 636.294 81.8333C636.451 109.111 630.81 136.389 630.81 163.667C630.81 190.944 636.451 218.222 636.764 245.5C637.077 272.778 631.75 300.056 631.593 327.333C631.28 354.611 635.981 381.889 638.018 409.167C640.211 436.444 639.584 463.722 640.995 491C642.248 518.278 645.382 545.556 646.949 572.833C648.516 600.111 648.516 627.389 647.262 654.667C645.852 681.944 643.345 709.222 643.502 736.5C643.815 763.778 646.949 791.056 644.285 818.333C641.778 845.611 633.317 872.889 630.183 900.167C627.049 927.444 629.243 954.722 630.183 968.361L631.28 982H531V968.361C531 954.722 531 927.444 531 900.167C531 872.889 531 845.611 531 818.333C531 791.056 531 763.778 531 736.5C531 709.222 531 681.944 531 654.667C531 627.389 531 600.111 531 572.833C531 545.556 531 518.278 531 491C531 463.722 531 436.444 531 409.167C531 381.889 531 354.611 531 327.333C531 300.056 531 272.778 531 245.5C531 218.222 531 190.944 531 163.667C531 136.389 531 109.111 531 81.8333C531 54.5556 531 27.2778 531 13.6389V0H623.446Z" fill="#0D1B3C"/>
</g>
</g>
<defs>
<clipPath id="clip0_1_2">
<rect width="1512" height="982" fill="white"/>
</clipPath>
<clipPath id="clip1_1_2">
<rect width="981" height="982" fill="white" transform="translate(531)"/>
</clipPath>
</defs>
</svg>
